<svg xmlns="http://www.w3.org/2000/svg" width="600" height="88.8" fill="#d91b77"><path d="M0 86.4V57.6h28.8V28.8h28.8V0h28.8v86.4M93.6 0C141.318 0 180 38.683 180 86.399H93.6V0m486.905 50.198c-4.061 0-9.504 3.283-11.405 6.652v29.549h-6.479V44.668h6.479v6.653c3.37-4.319 8.208-7.603 13.911-7.603v6.653c-.779-.087-1.556-.173-2.506-.173m-28.857 36.201h-31.794v-5.096l22.982-30.932h-22.982v-5.703h31.449v4.926l-23.156 31.103h23.501m-49.247-36.029h6.479v41.731h-6.479"/><circle cx="505.65" cy="34.35" r="4.37"/><path d="M482.963 86.399V59.098c0-7.431-3.803-9.678-9.418-9.678-5.098 0-9.85 3.111-12.355 6.48v30.499h-6.48V44.668h6.48v6.048c2.938-3.542 8.64-7.084 14.947-7.084 8.64 0 13.219 4.407 13.219 13.479V86.4h-6.393m-38.88-36.202c-4.061 0-9.504 3.283-11.404 6.652v29.549H426.2V44.668h6.479v6.653c3.369-4.319 8.208-7.603 13.911-7.603v6.653c-.778-.087-1.556-.173-2.507-.173M258.067 86.399V37.93l-19.526 48.469h-2.937L215.991 37.93v48.469h-7.172V28.771h10.282l17.971 44.41 17.885-44.41h10.282v57.628M415.746 66.01c0-12.528-7.431-22.378-20.046-22.378-11.923 0-20.562 9.763-20.562 21.86 0 13.047 8.898 21.945 21.341 21.945 6.739 0 12.355-2.333 16.589-6.479l-3.111-4.234c-3.369 3.456-8.121 5.356-12.96 5.356-8.985 0-14.429-6.565-14.946-14.428h33.696V66.01m-33.784-3.198c.346-6.307 4.752-13.824 13.651-13.824 9.504 0 13.651 7.69 13.737 13.824h-27.388m-23.846-34.041v22.205c-3.37-4.579-8.468-7.344-14.084-7.344-10.887 0-18.575 8.554-18.575 21.946 0 13.565 7.688 21.859 18.575 21.859 5.876 0 10.974-3.023 14.084-7.258V86.4h6.479V28.771h-6.479m0 46.224c-2.247 3.628-7.344 6.652-12.442 6.652-8.467 0-13.478-6.825-13.478-16.07s5.011-16.157 13.478-16.157c5.099 0 10.195 3.111 12.442 6.739v18.836m-61.43-31.364c-12.701 0-20.649 9.763-20.649 21.86 0 12.096 7.948 21.945 20.649 21.945s20.65-9.85 20.65-21.945c0-12.096-7.949-21.86-20.65-21.86m0 38.016c-8.899 0-13.824-7.603-13.824-16.156 0-8.468 4.925-16.071 13.824-16.071 8.9 0 13.824 7.604 13.824 16.071 0 8.554-4.924 16.156-13.824 16.156"/></svg>