<svg xmlns="http://www.w3.org/2000/svg" viewBox="0 0 32.6 31.8">
  <path fill="#ececec" fill-rule="evenodd" d="M16.3 0C7.3 0 0 7.3 0 16.3c0 7.2 4.7 13.3 11 15.5 1 0 1.2-.4 1.2-.8v-2.8c-4.5 1-5.5-2.2-5.5-2.2C6 24 5 23.6 5 23.6c-1.6-1 0-1 0-1 1.6 0 2.5 1.7 2.5 1.7 1.5 2.5 3.8 1.8 4.7 1.4 0-1 .6-1.8 1-2.2-3.6-.4-7.4-1.8-7.4-8 0-2 .6-3.3 1.7-4.5 0-.3-.7-2 .2-4.2 0 0 1.4-.4 4.5 1.7 1.3-.4 2.7-.5 4-.5 1.5 0 3 .2 4.2.5 3-2 4.5-1.7 4.5-1.7.7 2.2 0 4 0 4.3 1 1.3 1.7 2.8 1.7 4.6 0 6.3-3.8 7.6-7.4 8 .6.5 1 1.5 1 3V31c0 .4.4 1 1.2.8 6.5-2.2 11-8.3 11-15.5 0-9-7.3-16.3-16.3-16.3z" clip-rule="evenodd"/>
</svg>
