<svg width="1170" height="88" xmlns="http://www.w3.org/2000/svg"><path fill="none" d="M-1-1h1172v90H-1z"/><g fill="#db4886"><path fill-rule="evenodd" clip-rule="evenodd" d="M0 86.4V57.6h28.8V28.8h28.8V0h28.8v86.4z"/><path fill-rule="evenodd" clip-rule="evenodd" d="M93.6 0C141.3 0 180 38.7 180 86.4H93.6V0z"/><path d="M580.5 50.2c-4 0-9.5 3.3-11.4 6.6v29.6h-6.4V44.7h6.5v6.6c3.5-4.3 8.3-7.6 14-7.6v6.7l-2.5-.2z"/><path d="M551.6 86.4H520v-5l22.8-31h-23v-5.7h31.5v5l-23.2 31h23.6z"/><path d="M502.4 44.7h6.5v41.7h-6.6z"/><path d="M505.7 38.7c-2.4 0-4.4-2-4.4-4.3 0-2.4 2-4.4 4.4-4.4 2.4 0 4.3 2 4.3 4.4 0 2.4-2 4.3-4.3 4.3z"/><path d="M483 86.4V59c0-7.3-3.8-9.6-9.5-9.6-5 0-9.8 3-12.3 6.5v30.4h-6.5V44.7h6.5v6c3-3.5 8.6-7 15-7 8.6 0 13.2 4.3 13.2 13.4v29.4H483z"/><path d="M444 50.2c-4 0-9.4 3.3-11.3 6.6v29.6h-6.5V44.7h6.5v6.6c3.3-4.3 8.2-7.6 14-7.6v6.7l-2.6-.2z"/><path d="M258 86.4V38l-19.5 48.4h-3L216 38v48.4h-7.2V28.8H219l18 44.4 18-44.4h10.2v57.6z"/><path d="M415.7 66c0-12.5-7.4-22.4-20-22.4-12 0-20.6 9.8-20.6 22 0 13 9 21.8 21.5 21.8 6.7 0 12.3-2.3 16.6-6.4l-3-4.3c-3.4 3.5-8.2 5.4-13 5.4-9 0-14.4-6.5-15-14.3h33.7V66zM382 62.8c.3-6.3 4.7-13.8 13.6-13.8 9.5 0 13.7 7.7 13.8 13.8H382z"/><path d="M358 28.8V51c-3.3-4.6-8.4-7.4-14-7.4-11 0-18.5 8.6-18.5 22 0 13.5 7.6 21.8 18.5 21.8 6 0 11-3 14-7.2v6.2h6.6V28.8H358zm0 46.2c-2 3.6-7.2 6.6-12.3 6.6-8.5 0-13.5-6.8-13.5-16s5-16.2 13.5-16.2c5 0 10.2 3 12.4 6.8V75z"/><path d="M296.7 43.6c-12.7 0-20.7 9.8-20.7 22 0 12 8 21.8 20.7 21.8s20.6-9.8 20.6-22c0-12-8-21.8-20.6-21.8zm0 38c-9 0-13.8-7.6-13.8-16 0-8.6 4.8-16.2 13.7-16.2 9 0 13.8 7.6 13.8 16 0 8.6-5 16.2-13.8 16.2z"/></g><g fill="#fff"><path fill-rule="evenodd" clip-rule="evenodd" d="M587 87.4V58.6h28.8V29.8h28.8V1h28.8v86.4z"/><path fill-rule="evenodd" clip-rule="evenodd" d="M680.6 1C728.3 1 767 39.7 767 87.4h-86.4V1z"/><path d="M1167.5 51.2c-4 0-9.5 3.3-11.4 6.6v29.6h-6.4V45.7h6.5v6.6c3.5-4.3 8.3-7.6 14-7.6v6.7l-2.5-.2z"/><path d="M1138.7 87.4H1107v-5l22.8-31h-23v-5.7h31.5v5l-23 31h23.4z"/><path d="M1089.4 45.7h6.5v41.7h-6.6z"/><path d="M1092.7 39.7c-2.4 0-4.4-2-4.4-4.3 0-2.4 2-4.4 4.4-4.4 2.4 0 4.3 2 4.3 4.4 0 2.4-2 4.3-4.3 4.3z"/><path d="M1070 87.4V60c0-7.3-3.8-9.6-9.4-9.6-5 0-10 3-12.4 6.5v30.4h-6.5V45.7h6.5v6c3-3.5 8.6-7 15-7 8.6 0 13.2 4.3 13.2 13.4v29.4h-6.4z"/><path d="M1031 51.2c-4 0-9.4 3.3-11.3 6.6v29.6h-6.5V45.7h6.5v6.6c3.4-4.3 8.2-7.6 14-7.6v6.7l-2.6-.2z"/><path d="M845 87.4V39l-19.5 48.4h-3L803 39v48.4h-7.2V29.8H806l18 44.4 18-44.4h10.2v57.6z"/><path d="M1002.8 67c0-12.5-7.5-22.4-20-22.4-12 0-20.7 9.8-20.7 22 0 13 9 21.8 21.5 21.8 6.7 0 12.3-2.3 16.6-6.4l-3-4.3c-3.4 3.5-8.2 5.4-13 5.4-9 0-14.4-6.5-15-14.3h33.8V67zM969 63.8c.3-6.3 4.7-13.8 13.6-13.8 9.5 0 13.7 7.7 13.8 13.8H969z"/><path d="M945 29.8V52c-3.2-4.6-8.3-7.4-14-7.4-10.8 0-18.5 8.6-18.5 22 0 13.5 7.7 21.8 18.5 21.8 6 0 11-3 14-7.2v6.2h6.6V29.8H945zm0 46.2c-2 3.6-7.2 6.6-12.3 6.6-8.5 0-13.5-6.8-13.5-16s5-16.2 13.5-16.2c5 0 10.2 3 12.4 6.8V76z"/><path d="M883.7 44.6c-12.7 0-20.7 9.8-20.7 22 0 12 8 21.8 20.7 21.8s20.6-9.8 20.6-22c0-12-8-21.8-20.6-21.8zm0 38c-9 0-13.8-7.6-13.8-16 0-8.6 4.8-16.2 13.7-16.2 9 0 13.8 7.6 13.8 16 0 8.6-5 16.2-13.8 16.2z"/></g></svg>
