<svg xmlns="http://www.w3.org/2000/svg" xmlns:xlink="http://www.w3.org/1999/xlink" viewBox="0 0 585 88">
  <defs>
    <linearGradient id="a" x1="92.04" y1="77.13" x2="145.2" y2="23.97" gradientUnits="userSpaceOnUse">
      <stop offset="0" stop-color="#d81e75"/>
      <stop offset="1" stop-color="#ff5fa8"/>
    </linearGradient>
  </defs>
  <title>Artboard 1</title>
  <path d="M91,3.35V74.87A3.28,3.28,0,0,0,94.41,78h71.52a3.26,3.26,0,0,0,3.25-3.36C169.2,39,130.22.13,94.5.07A3.41,3.41,0,0,0,91,3.35Z" fill="url(#a)"/>
  <path d="M0,55.34V74.87A3.15,3.15,0,0,0,3.26,78H74.87A3,3,0,0,0,78,74.87V3.26A3.15,3.15,0,0,0,74.87,0H55.34A3.33,3.33,0,0,0,52,3.26V22.79A3.15,3.15,0,0,1,48.83,26H29.3A3.33,3.33,0,0,0,26,29.3V48.83A3.15,3.15,0,0,1,22.79,52H3.26A3.33,3.33,0,0,0,0,55.34Z" fill="#d81e75"/>
  <path d="M74.87,0H55.34A3.33,3.33,0,0,0,52,3.26V22.79A3.15,3.15,0,0,1,48.83,26H29.3A3.33,3.33,0,0,0,26,29.3V78H74.87A3,3,0,0,0,78,74.87V3.26A3.15,3.15,0,0,0,74.87,0Z" fill="#f38" opacity="0.8"/>
  <path d="M74.87,0H55.34A3.33,3.33,0,0,0,52,3.26V78H74.87A3,3,0,0,0,78,74.87V3.26A3.15,3.15,0,0,0,74.87,0Z" fill="#ff5fa8" opacity="0.8"/>
  <g>
    <path d="M263.19,78.13V31.66L244,78.13H241.1L222,31.66V78.13h-7V21.67H225l17.52,42.49,17.6-42.49h10.07V78.13Z" fill="#d81e75"/>
    <path d="M280.8,57.65c0-11.85,7.79-21.41,20.23-21.41s20.23,9.56,20.23,21.41-7.79,21.5-20.23,21.5S280.8,69.49,280.8,57.65Zm33.77,0c0-8.29-4.82-15.74-13.54-15.74S287.4,49.35,287.4,57.65,292.31,73.47,301,73.47,314.57,66,314.57,57.65Z" fill="#d81e75"/>
    <path d="M361.2,78.13V72a17.21,17.21,0,0,1-13.8,7.11c-10.66,0-18.2-8.13-18.2-21.41,0-13,7.45-21.5,18.2-21.5a17.09,17.09,0,0,1,13.8,7.19V21.67h6.35V78.13Zm0-11.09V48.5a15.35,15.35,0,0,0-12.27-6.6c-8.21,0-13.12,6.77-13.12,15.83s4.91,15.74,13.12,15.74A15.21,15.21,0,0,0,361.2,67Z" fill="#d81e75"/>
    <path d="M377.88,57.65c0-11.85,8.46-21.41,20.14-21.41,12.36,0,19.64,9.65,19.64,21.92v1.61H384.56c.51,7.7,5.92,14.14,14.73,14.14a17.87,17.87,0,0,0,12.61-5.16l3,4.15c-4.06,4.06-9.56,6.26-16.25,6.26C386.6,79.14,377.88,70.43,377.88,57.65Zm20.06-16.17c-8.72,0-13,7.36-13.37,13.63H411.4C411.31,49,407.25,41.48,397.94,41.48Z" fill="#d81e75"/>
    <path d="M427.9,78.13V37.25h6.35v6.6c3.3-4.32,8-7.45,13.63-7.45v6.52a11.18,11.18,0,0,0-2.54-.25c-3.89,0-9.23,3.22-11.09,6.52V78.13Z" fill="#d81e75"/>
    <path d="M483.42,78.13V51.38c0-7.19-3.64-9.48-9.14-9.48a15.78,15.78,0,0,0-12.1,6.35V78.13h-6.35V37.25h6.35v5.92c2.88-3.39,8.46-6.94,14.56-6.94,8.55,0,13,4.32,13,13.2V78.13Z" fill="#d81e75"/>
    <path d="M501.37,27.17a4.27,4.27,0,1,1,8.55,0,4.27,4.27,0,0,1-8.55,0Zm1.1,51V37.25h6.35V78.13Z" fill="#d81e75"/>
    <path d="M519.56,78.13V73.22l22.51-30.39H519.56V37.25h30.81v4.82L527.69,72.63h23v5.5Z" fill="#d81e75"/>
    <path d="M561.46,78.13V37.25h6.35v6.6c3.3-4.32,8-7.45,13.63-7.45v6.52a11.18,11.18,0,0,0-2.54-.25c-3.89,0-9.23,3.22-11.09,6.52V78.13Z" fill="#d81e75"/>
  </g>
</svg>
